<svg width="32" height="32" viewBox="0 0 32 32" fill="none" xmlns="http://www.w3.org/2000/svg">
  <!-- Background circle with gradient -->
  <defs>
    <linearGradient id="cosmicGradient" x1="0%" y1="0%" x2="100%" y2="100%">
      <stop offset="0%" style="stop-color:#3B82F6;stop-opacity:1" />
      <stop offset="100%" style="stop-color:#1D4ED8;stop-opacity:1" />
    </linearGradient>
  </defs>
  
  <!-- Main circle background -->
  <circle cx="16" cy="16" r="15" fill="url(#cosmicGradient)" stroke="#1E40AF" stroke-width="1"/>
  
  <!-- Sparkles -->
  <g fill="#FFFFFF" opacity="0.9">
    <!-- Main sparkle -->
    <path d="M16 8 L17.5 12 L22 13.5 L17.5 15 L16 19.5 L14.5 15 L10 13.5 L14.5 12 Z" fill="#FFFFFF"/>
    
    <!-- Small sparkles -->
    <path d="M8 12 L8.5 13 L9.5 13.5 L8.5 14 L8 15 L7.5 14 L6.5 13.5 L7.5 13 Z" fill="#FFFFFF" opacity="0.7"/>
    <path d="M24 20 L24.5 21 L25.5 21.5 L24.5 22 L24 23 L23.5 22 L22.5 21.5 L23.5 21 Z" fill="#FFFFFF" opacity="0.7"/>
    <path d="M6 22 L6.5 23 L7.5 23.5 L6.5 24 L6 25 L5.5 24 L4.5 23.5 L5.5 23 Z" fill="#FFFFFF" opacity="0.6"/>
    <path d="M26 10 L26.5 11 L27.5 11.5 L26.5 12 L26 13 L25.5 12 L24.5 11.5 L25.5 11 Z" fill="#FFFFFF" opacity="0.6"/>
  </g>
</svg>
